<mxfile host="Electron" agent="Mozilla/5.0 (Windows NT 10.0; Win64; x64) AppleWebKit/537.36 (KHTML, like Gecko) draw.io/28.1.2 Chrome/138.0.7204.243 Electron/37.4.0 Safari/537.36" version="28.1.2">
  <diagram name="Trang-1" id="FtCZijMYQjL5lPQfcvxm">
    <mxGraphModel dx="974" dy="603" grid="1" gridSize="10" guides="1" tooltips="1" connect="1" arrows="1" fold="1" page="1" pageScale="1" pageWidth="827" pageHeight="1169" math="0" shadow="0">
      <root>
        <mxCell id="0" />
        <mxCell id="1" parent="0" />
        <mxCell id="XKHknkI7W3xQ8LKVjMdw-1" value="Register for courses" style="ellipse;whiteSpace=wrap;html=1;" vertex="1" parent="1">
          <mxGeometry x="250" y="100" width="140" height="70" as="geometry" />
        </mxCell>
        <mxCell id="XKHknkI7W3xQ8LKVjMdw-2" value="Student" style="shape=umlActor;html=1;verticalLabelPosition=bottom;verticalAlign=top;align=center;" vertex="1" parent="1">
          <mxGeometry x="80" y="70" width="30" height="60" as="geometry" />
        </mxCell>
        <mxCell id="XKHknkI7W3xQ8LKVjMdw-3" value="" style="edgeStyle=none;html=1;endArrow=block;endFill=0;endSize=12;verticalAlign=bottom;rounded=0;exitX=1;exitY=0.3333333333333333;exitDx=0;exitDy=0;exitPerimeter=0;entryX=0;entryY=0.5;entryDx=0;entryDy=0;" edge="1" parent="1" source="XKHknkI7W3xQ8LKVjMdw-2" target="XKHknkI7W3xQ8LKVjMdw-1">
          <mxGeometry width="160" relative="1" as="geometry">
            <mxPoint x="210" y="510" as="sourcePoint" />
            <mxPoint x="530" y="360" as="targetPoint" />
          </mxGeometry>
        </mxCell>
        <mxCell id="XKHknkI7W3xQ8LKVjMdw-4" value="Billing System" style="shape=umlActor;html=1;verticalLabelPosition=bottom;verticalAlign=top;align=center;" vertex="1" parent="1">
          <mxGeometry x="560" y="70" width="30" height="60" as="geometry" />
        </mxCell>
        <mxCell id="XKHknkI7W3xQ8LKVjMdw-5" value="Professor" style="shape=umlActor;html=1;verticalLabelPosition=bottom;verticalAlign=top;align=center;" vertex="1" parent="1">
          <mxGeometry x="80" y="210" width="30" height="60" as="geometry" />
        </mxCell>
        <mxCell id="XKHknkI7W3xQ8LKVjMdw-6" value="Registrar" style="shape=umlActor;html=1;verticalLabelPosition=bottom;verticalAlign=top;align=center;" vertex="1" parent="1">
          <mxGeometry x="80" y="420" width="30" height="60" as="geometry" />
        </mxCell>
        <mxCell id="XKHknkI7W3xQ8LKVjMdw-7" value="" style="edgeStyle=none;html=1;endArrow=block;endFill=0;endSize=12;verticalAlign=bottom;rounded=0;exitX=1;exitY=0.3333333333333333;exitDx=0;exitDy=0;exitPerimeter=0;entryX=0;entryY=0.5;entryDx=0;entryDy=0;" edge="1" parent="1" source="XKHknkI7W3xQ8LKVjMdw-5" target="XKHknkI7W3xQ8LKVjMdw-12">
          <mxGeometry width="160" relative="1" as="geometry">
            <mxPoint x="290" y="350" as="sourcePoint" />
            <mxPoint x="451" y="420" as="targetPoint" />
          </mxGeometry>
        </mxCell>
        <mxCell id="XKHknkI7W3xQ8LKVjMdw-8" value="" style="edgeStyle=none;html=1;endArrow=block;endFill=0;endSize=12;verticalAlign=bottom;rounded=0;exitX=1;exitY=0.5;exitDx=0;exitDy=0;entryX=0;entryY=0.3333333333333333;entryDx=0;entryDy=0;entryPerimeter=0;" edge="1" parent="1" source="XKHknkI7W3xQ8LKVjMdw-1" target="XKHknkI7W3xQ8LKVjMdw-4">
          <mxGeometry width="160" relative="1" as="geometry">
            <mxPoint x="530" y="380" as="sourcePoint" />
            <mxPoint x="691" y="450" as="targetPoint" />
          </mxGeometry>
        </mxCell>
        <mxCell id="XKHknkI7W3xQ8LKVjMdw-9" value="" style="edgeStyle=none;html=1;endArrow=block;endFill=0;endSize=12;verticalAlign=bottom;rounded=0;entryX=0;entryY=0.5;entryDx=0;entryDy=0;" edge="1" parent="1" target="XKHknkI7W3xQ8LKVjMdw-16">
          <mxGeometry width="160" relative="1" as="geometry">
            <mxPoint x="110" y="440" as="sourcePoint" />
            <mxPoint x="641" y="550" as="targetPoint" />
          </mxGeometry>
        </mxCell>
        <mxCell id="XKHknkI7W3xQ8LKVjMdw-10" value="" style="edgeStyle=none;html=1;endArrow=block;endFill=0;endSize=12;verticalAlign=bottom;rounded=0;entryX=0;entryY=0.5;entryDx=0;entryDy=0;" edge="1" parent="1" target="XKHknkI7W3xQ8LKVjMdw-15">
          <mxGeometry width="160" relative="1" as="geometry">
            <mxPoint x="110" y="440" as="sourcePoint" />
            <mxPoint x="511" y="580" as="targetPoint" />
          </mxGeometry>
        </mxCell>
        <mxCell id="XKHknkI7W3xQ8LKVjMdw-11" value="" style="edgeStyle=none;html=1;endArrow=block;endFill=0;endSize=12;verticalAlign=bottom;rounded=0;exitX=1;exitY=0.3333333333333333;exitDx=0;exitDy=0;exitPerimeter=0;entryX=0;entryY=0.5;entryDx=0;entryDy=0;" edge="1" parent="1" source="XKHknkI7W3xQ8LKVjMdw-6" target="XKHknkI7W3xQ8LKVjMdw-14">
          <mxGeometry width="160" relative="1" as="geometry">
            <mxPoint x="230" y="540" as="sourcePoint" />
            <mxPoint x="391" y="610" as="targetPoint" />
          </mxGeometry>
        </mxCell>
        <mxCell id="XKHknkI7W3xQ8LKVjMdw-12" value="Select courses to teach" style="ellipse;whiteSpace=wrap;html=1;" vertex="1" parent="1">
          <mxGeometry x="250" y="200" width="140" height="70" as="geometry" />
        </mxCell>
        <mxCell id="XKHknkI7W3xQ8LKVjMdw-14" value="Maintain Curriculum" style="ellipse;whiteSpace=wrap;html=1;" vertex="1" parent="1">
          <mxGeometry x="250" y="320" width="140" height="70" as="geometry" />
        </mxCell>
        <mxCell id="XKHknkI7W3xQ8LKVjMdw-15" value="Maintain Student information" style="ellipse;whiteSpace=wrap;html=1;" vertex="1" parent="1">
          <mxGeometry x="250" y="400" width="140" height="70" as="geometry" />
        </mxCell>
        <mxCell id="XKHknkI7W3xQ8LKVjMdw-16" value="Maintain Professor information" style="ellipse;whiteSpace=wrap;html=1;" vertex="1" parent="1">
          <mxGeometry x="250" y="480" width="140" height="70" as="geometry" />
        </mxCell>
        <mxCell id="XKHknkI7W3xQ8LKVjMdw-17" value="Registrar Validation" style="ellipse;whiteSpace=wrap;html=1;" vertex="1" parent="1">
          <mxGeometry x="505" y="400" width="140" height="70" as="geometry" />
        </mxCell>
        <mxCell id="XKHknkI7W3xQ8LKVjMdw-18" value="" style="edgeStyle=none;html=1;endArrow=block;endFill=0;endSize=12;verticalAlign=bottom;rounded=0;entryX=0;entryY=1;entryDx=0;entryDy=0;exitX=1;exitY=0.5;exitDx=0;exitDy=0;" edge="1" parent="1" source="XKHknkI7W3xQ8LKVjMdw-16" target="XKHknkI7W3xQ8LKVjMdw-17">
          <mxGeometry width="160" relative="1" as="geometry">
            <mxPoint x="500" y="495" as="sourcePoint" />
            <mxPoint x="640" y="570" as="targetPoint" />
          </mxGeometry>
        </mxCell>
        <mxCell id="XKHknkI7W3xQ8LKVjMdw-19" value="" style="edgeStyle=none;html=1;endArrow=block;endFill=0;endSize=12;verticalAlign=bottom;rounded=0;entryX=0;entryY=0.5;entryDx=0;entryDy=0;exitX=1;exitY=0.5;exitDx=0;exitDy=0;" edge="1" parent="1" source="XKHknkI7W3xQ8LKVjMdw-15" target="XKHknkI7W3xQ8LKVjMdw-17">
          <mxGeometry width="160" relative="1" as="geometry">
            <mxPoint x="500" y="495" as="sourcePoint" />
            <mxPoint x="640" y="490" as="targetPoint" />
          </mxGeometry>
        </mxCell>
        <mxCell id="XKHknkI7W3xQ8LKVjMdw-20" value="" style="edgeStyle=none;html=1;endArrow=block;endFill=0;endSize=12;verticalAlign=bottom;rounded=0;exitX=1;exitY=0.5;exitDx=0;exitDy=0;entryX=0;entryY=0;entryDx=0;entryDy=0;" edge="1" parent="1" source="XKHknkI7W3xQ8LKVjMdw-14" target="XKHknkI7W3xQ8LKVjMdw-17">
          <mxGeometry width="160" relative="1" as="geometry">
            <mxPoint x="500" y="495" as="sourcePoint" />
            <mxPoint x="640" y="410" as="targetPoint" />
          </mxGeometry>
        </mxCell>
      </root>
    </mxGraphModel>
  </diagram>
</mxfile>
